<svg width="14" height="14" viewBox="0 0 14 14" fill="none" xmlns="http://www.w3.org/2000/svg">
<path d="M9.74174 3.39644C9.04641 3.39644 8.48273 3.96011 8.48273 4.65545C8.48273 5.35078 9.04641 5.91445 9.74174 5.91445C10.4371 5.91445 11.0008 5.35078 11.0008 4.65545C11.0008 3.96011 10.4371 3.39644 9.74174 3.39644Z" fill="#A0A3BD"/>
<path fill-rule="evenodd" clip-rule="evenodd" d="M0.92868 2.13743C0.92868 1.4421 1.49236 0.878418 2.18769 0.878418H12.2598C12.9551 0.878418 13.5188 1.4421 13.5188 2.13743V12.2095C13.5188 12.2964 13.51 12.3813 13.4932 12.4632C13.4684 12.5845 13.4261 12.6995 13.3691 12.8054C13.1566 13.2002 12.7395 13.4685 12.2598 13.4685H2.18769C1.49236 13.4685 0.92868 12.9048 0.92868 12.2095V2.13743ZM4.99883 3.51574L4.70571 3.22262L1.76802 6.1603V2.13743C1.76802 1.90565 1.95591 1.71776 2.18769 1.71776H12.2598C12.4915 1.71776 12.6794 1.90565 12.6794 2.13743V9.27181H10.7549L5.00249 3.51935C5.00128 3.51814 5.00006 3.51694 4.99883 3.51574Z" fill="#A0A3BD"/>
</svg>
