<svg width="16" height="15" viewBox="0 0 16 15" fill="none" xmlns="http://www.w3.org/2000/svg">
<path d="M7.48071 0.977908C7.73197 0.204616 8.82598 0.204615 9.07723 0.977908L10.2576 4.61079C10.37 4.95662 10.6923 5.19076 11.0559 5.19076L14.8757 5.19076C15.6888 5.19076 16.0269 6.23122 15.3691 6.70914L12.2788 8.95439C11.9846 9.16812 11.8615 9.54697 11.9739 9.8928L13.1543 13.5257C13.4055 14.299 12.5204 14.942 11.8626 14.4641L8.77232 12.2189C8.47815 12.0051 8.0798 12.0051 7.78562 12.2189L4.6953 14.4641C4.0375 14.942 3.15244 14.299 3.40369 13.5257L4.58409 9.8928C4.69646 9.54697 4.57336 9.16812 4.27918 8.95439L1.18886 6.70914C0.531062 6.23122 0.869127 5.19076 1.68221 5.19076L5.50206 5.19076C5.86568 5.19076 6.18795 4.95662 6.30032 4.61079L7.48071 0.977908Z" fill="#FDB908"/>
</svg>
