<svg width="13" height="13" viewBox="0 0 13 13" fill="none" xmlns="http://www.w3.org/2000/svg">
<path d="M3.78647 6.57276L7.14382 6.57276M9.24217 3.63508L7.14382 6.56892L9.24217 9.51045M12.1799 2.37497C12.1799 3.301 11.4278 4.05256 10.5012 4.05256C9.57455 4.05256 8.8225 3.301 8.8225 2.37497C8.8225 1.44895 9.57455 0.697388 10.5012 0.697388C11.4278 0.697388 12.1799 1.44895 12.1799 2.37497ZM12.1799 10.7629C12.1799 11.6889 11.4278 12.4405 10.5012 12.4405C9.57455 12.4405 8.8225 11.6889 8.8225 10.7629C8.8225 9.83686 9.57455 9.0853 10.5012 9.0853C11.4278 9.0853 12.1799 9.83686 12.1799 10.7629ZM3.78647 6.56893C3.78647 7.49495 3.03442 8.24651 2.10779 8.24651C1.18116 8.24651 0.429108 7.49495 0.429108 6.56893C0.429108 5.6429 1.18116 4.89134 2.10779 4.89134C3.03442 4.89134 3.78647 5.6429 3.78647 6.56893Z" stroke="#222151" stroke-width="0.839339" stroke-linecap="square"/>
</svg>
