<svg width="15" height="15" viewBox="0 0 15 15" fill="none" xmlns="http://www.w3.org/2000/svg">
<path d="M6.69901 0.97803C6.95027 0.204738 8.04428 0.204738 8.29553 0.97803L9.47593 4.61092C9.58829 4.95674 9.91056 5.19089 10.2742 5.19089L14.094 5.19089C14.9071 5.19089 15.2452 6.23134 14.5874 6.70926L11.4971 8.95451C11.2029 9.16825 11.0798 9.5471 11.1922 9.89292L12.3726 13.5258C12.6238 14.2991 11.7387 14.9421 11.0809 14.4642L7.99062 12.219C7.69645 12.0052 7.2981 12.0052 7.00392 12.219L3.9136 14.4642C3.2558 14.9421 2.37074 14.2991 2.62199 13.5258L3.80239 9.89292C3.91476 9.5471 3.79166 9.16825 3.49748 8.95451L0.407164 6.70927C-0.250638 6.23134 0.0874267 5.19089 0.900514 5.19089L4.72036 5.19089C5.08398 5.19089 5.40625 4.95674 5.51862 4.61092L6.69901 0.97803Z" fill="#C4C4C4"/>
</svg>
